# xmcd
#
# Track frame offsets:
# 150
# 13017
# 25715
# 46397
# 63837
# 90210
# 104652
# 121317
# 140785
# 159050
# 170702
# 180232
#
# Disc length: 2612 seconds
#
# Revision: 1
# Processed by: cddbd v1.4PL0 Copyright (c) Steve Scherf et al.
# Submitted via: CdCzar 4.3c
#
DISCID=8f0a320c
DTITLE=Moses Rascoe - Blues (Recorded Live at Godfrey Daniels)
DYEAR=1900
DGENRE=blues
TTITLE0=Bright Lights, Big City
TTITLE1=Blood Red River
TTITLE2=Big Boss Man
TTITLE3=Must Jesus Bear the Cross Alone
TTITLE4=John Henry
TTITLE5=Step It up and Go
TTITLE6=Scooba Doo
TTITLE7=Deep Sea Diver
TTITLE8=Frankie and Johnny
TTITLE9=Let Me Play With Your Yo Yo
TTITLE10=Twelve String Rag [instrumental]
TTITLE11=Crowded
EXTD=
EXTT0=
EXTT1=
EXTT2=
EXTT3=
EXTT4=
EXTT5=
EXTT6=
EXTT7=
EXTT8=
EXTT9=
EXTT10=
EXTT11=
PLAYORDER=
